<mxfile host="app.diagrams.net" agent="Mozilla/5.0 (X11; Ubuntu; Linux x86_64; rv:136.0) Gecko/20100101 Firefox/136.0" version="28.2.7">
  <diagram name="PÃ¡gina-1" id="_rZulrzsdtSt4vWavjif">
    <mxGraphModel dx="3223" dy="1242" grid="0" gridSize="10" guides="1" tooltips="1" connect="1" arrows="1" fold="1" page="0" pageScale="1" pageWidth="1169" pageHeight="827" math="0" shadow="0">
      <root>
        <mxCell id="0" />
        <mxCell id="1" parent="0" />
        <mxCell id="lu0znOIndSDiGiOmnlGc-1" value="AWS Cloud" style="points=[[0,0],[0.25,0],[0.5,0],[0.75,0],[1,0],[1,0.25],[1,0.5],[1,0.75],[1,1],[0.75,1],[0.5,1],[0.25,1],[0,1],[0,0.75],[0,0.5],[0,0.25]];outlineConnect=0;gradientColor=none;html=1;whiteSpace=wrap;fontSize=14;fontStyle=0;container=1;pointerEvents=0;collapsible=0;recursiveResize=0;shape=mxgraph.aws4.group;grIcon=mxgraph.aws4.group_aws_cloud_alt;strokeColor=#232F3E;fillColor=none;verticalAlign=top;align=left;spacingLeft=30;fontColor=#232F3E;dashed=0;" parent="1" vertex="1">
          <mxGeometry x="-420" y="167" width="2045" height="1128" as="geometry" />
        </mxCell>
        <mxCell id="teR93byTSqqBIhb2rqv4-142" value="&lt;div&gt;Monitoramento e Observabilidade&lt;br&gt;&lt;/div&gt;" style="fillColor=none;strokeColor=#5A6C86;dashed=1;verticalAlign=top;fontStyle=0;fontColor=#5A6C86;whiteSpace=wrap;html=1;fontSize=14;" parent="lu0znOIndSDiGiOmnlGc-1" vertex="1">
          <mxGeometry x="43.129999999999995" y="577" width="273" height="153" as="geometry" />
        </mxCell>
        <mxCell id="lu0znOIndSDiGiOmnlGc-4" value="Region" style="points=[[0,0],[0.25,0],[0.5,0],[0.75,0],[1,0],[1,0.25],[1,0.5],[1,0.75],[1,1],[0.75,1],[0.5,1],[0.25,1],[0,1],[0,0.75],[0,0.5],[0,0.25]];outlineConnect=0;gradientColor=none;html=1;whiteSpace=wrap;fontSize=14;fontStyle=0;container=1;pointerEvents=0;collapsible=0;recursiveResize=0;shape=mxgraph.aws4.group;grIcon=mxgraph.aws4.group_region;strokeColor=#00A4A6;fillColor=none;verticalAlign=top;align=left;spacingLeft=30;fontColor=#147EBA;dashed=1;" parent="lu0znOIndSDiGiOmnlGc-1" vertex="1">
          <mxGeometry x="362" y="23" width="1655" height="1071" as="geometry" />
        </mxCell>
        <mxCell id="teR93byTSqqBIhb2rqv4-127" value="" style="sketch=0;points=[[0,0,0],[0.25,0,0],[0.5,0,0],[0.75,0,0],[1,0,0],[0,1,0],[0.25,1,0],[0.5,1,0],[0.75,1,0],[1,1,0],[0,0.25,0],[0,0.5,0],[0,0.75,0],[1,0.25,0],[1,0.5,0],[1,0.75,0]];outlineConnect=0;fontColor=#232F3E;fillColor=#ED7100;strokeColor=#ffffff;dashed=0;verticalLabelPosition=bottom;verticalAlign=top;align=center;html=1;fontSize=14;fontStyle=0;aspect=fixed;shape=mxgraph.aws4.resourceIcon;resIcon=mxgraph.aws4.ecr;" parent="lu0znOIndSDiGiOmnlGc-4" vertex="1">
          <mxGeometry x="80" y="924" width="62" height="62" as="geometry" />
        </mxCell>
        <mxCell id="teR93byTSqqBIhb2rqv4-122" value="" style="sketch=0;points=[[0,0,0],[0.25,0,0],[0.5,0,0],[0.75,0,0],[1,0,0],[0,1,0],[0.25,1,0],[0.5,1,0],[0.75,1,0],[1,1,0],[0,0.25,0],[0,0.5,0],[0,0.75,0],[1,0.25,0],[1,0.5,0],[1,0.75,0]];outlineConnect=0;fontColor=#232F3E;fillColor=#DD344C;strokeColor=#ffffff;dashed=0;verticalLabelPosition=bottom;verticalAlign=top;align=center;html=1;fontSize=14;fontStyle=0;aspect=fixed;shape=mxgraph.aws4.resourceIcon;resIcon=mxgraph.aws4.secrets_manager;" parent="lu0znOIndSDiGiOmnlGc-4" vertex="1">
          <mxGeometry x="243.75" y="922" width="64" height="64" as="geometry" />
        </mxCell>
        <mxCell id="teR93byTSqqBIhb2rqv4-128" value="ECR&lt;div&gt;Elastic Container&amp;nbsp;&lt;/div&gt;&lt;div&gt;Registry&lt;br&gt;&lt;/div&gt;" style="text;html=1;align=center;verticalAlign=middle;resizable=0;points=[];autosize=1;strokeColor=none;fillColor=none;fontSize=14;" parent="lu0znOIndSDiGiOmnlGc-4" vertex="1">
          <mxGeometry x="47" y="1000" width="128" height="62" as="geometry" />
        </mxCell>
        <mxCell id="teR93byTSqqBIhb2rqv4-107" value="AWS&amp;nbsp;&lt;div&gt;Secrets Manager&lt;/div&gt;" style="text;html=1;align=center;verticalAlign=middle;resizable=0;points=[];autosize=1;strokeColor=none;fillColor=none;fontSize=14;" parent="lu0znOIndSDiGiOmnlGc-4" vertex="1">
          <mxGeometry x="212" y="1005" width="125" height="46" as="geometry" />
        </mxCell>
        <mxCell id="teR93byTSqqBIhb2rqv4-32" value="Bucket S3" style="text;html=1;align=center;verticalAlign=middle;resizable=0;points=[];autosize=1;strokeColor=none;fillColor=none;fontSize=14;" parent="lu0znOIndSDiGiOmnlGc-4" vertex="1">
          <mxGeometry x="366" y="1016.5" width="82" height="29" as="geometry" />
        </mxCell>
        <mxCell id="teR93byTSqqBIhb2rqv4-12" value="" style="sketch=0;points=[[0,0,0],[0.25,0,0],[0.5,0,0],[0.75,0,0],[1,0,0],[0,1,0],[0.25,1,0],[0.5,1,0],[0.75,1,0],[1,1,0],[0,0.25,0],[0,0.5,0],[0,0.75,0],[1,0.25,0],[1,0.5,0],[1,0.75,0]];outlineConnect=0;fontColor=#232F3E;fillColor=#7AA116;strokeColor=#ffffff;dashed=0;verticalLabelPosition=bottom;verticalAlign=top;align=center;html=1;fontSize=14;fontStyle=0;aspect=fixed;shape=mxgraph.aws4.resourceIcon;resIcon=mxgraph.aws4.s3;" parent="lu0znOIndSDiGiOmnlGc-4" vertex="1">
          <mxGeometry x="385" y="923" width="63" height="63" as="geometry" />
        </mxCell>
        <mxCell id="teR93byTSqqBIhb2rqv4-10" value="" style="sketch=0;points=[[0,0,0],[0.25,0,0],[0.5,0,0],[0.75,0,0],[1,0,0],[0,1,0],[0.25,1,0],[0.5,1,0],[0.75,1,0],[1,1,0],[0,0.25,0],[0,0.5,0],[0,0.75,0],[1,0.25,0],[1,0.5,0],[1,0.75,0]];outlineConnect=0;fontColor=#232F3E;fillColor=#DD344C;strokeColor=#ffffff;dashed=0;verticalLabelPosition=bottom;verticalAlign=top;align=center;html=1;fontSize=14;fontStyle=0;aspect=fixed;shape=mxgraph.aws4.resourceIcon;resIcon=mxgraph.aws4.cognito;" parent="lu0znOIndSDiGiOmnlGc-1" vertex="1">
          <mxGeometry x="279" y="338" width="51" height="51" as="geometry" />
        </mxCell>
        <mxCell id="teR93byTSqqBIhb2rqv4-13" value="" style="sketch=0;points=[[0,0,0],[0.25,0,0],[0.5,0,0],[0.75,0,0],[1,0,0],[0,1,0],[0.25,1,0],[0.5,1,0],[0.75,1,0],[1,1,0],[0,0.25,0],[0,0.5,0],[0,0.75,0],[1,0.25,0],[1,0.5,0],[1,0.75,0]];outlineConnect=0;fontColor=#232F3E;fillColor=#8C4FFF;strokeColor=#ffffff;dashed=0;verticalLabelPosition=bottom;verticalAlign=top;align=center;html=1;fontSize=14;fontStyle=0;aspect=fixed;shape=mxgraph.aws4.resourceIcon;resIcon=mxgraph.aws4.cloudfront;" parent="lu0znOIndSDiGiOmnlGc-1" vertex="1">
          <mxGeometry x="57.13" y="204" width="47" height="47" as="geometry" />
        </mxCell>
        <mxCell id="teR93byTSqqBIhb2rqv4-11" value="Cognito" style="text;html=1;align=center;verticalAlign=middle;resizable=0;points=[];autosize=1;strokeColor=none;fillColor=none;fontSize=14;" parent="lu0znOIndSDiGiOmnlGc-1" vertex="1">
          <mxGeometry x="274" y="397" width="66" height="29" as="geometry" />
        </mxCell>
        <mxCell id="teR93byTSqqBIhb2rqv4-14" value="CloudFront" style="text;html=1;align=center;verticalAlign=middle;resizable=0;points=[];autosize=1;strokeColor=none;fillColor=none;fontSize=14;" parent="lu0znOIndSDiGiOmnlGc-1" vertex="1">
          <mxGeometry x="29.999999999999996" y="168" width="87" height="29" as="geometry" />
        </mxCell>
        <mxCell id="teR93byTSqqBIhb2rqv4-15" value="" style="sketch=0;points=[[0,0,0],[0.25,0,0],[0.5,0,0],[0.75,0,0],[1,0,0],[0,1,0],[0.25,1,0],[0.5,1,0],[0.75,1,0],[1,1,0],[0,0.25,0],[0,0.5,0],[0,0.75,0],[1,0.25,0],[1,0.5,0],[1,0.75,0]];outlineConnect=0;fontColor=#232F3E;fillColor=#DD344C;strokeColor=#ffffff;dashed=0;verticalLabelPosition=bottom;verticalAlign=top;align=center;html=1;fontSize=14;fontStyle=0;aspect=fixed;shape=mxgraph.aws4.resourceIcon;resIcon=mxgraph.aws4.waf;" parent="lu0znOIndSDiGiOmnlGc-1" vertex="1">
          <mxGeometry x="172.5" y="335" width="53" height="53" as="geometry" />
        </mxCell>
        <mxCell id="teR93byTSqqBIhb2rqv4-17" value="" style="sketch=0;points=[[0,0,0],[0.25,0,0],[0.5,0,0],[0.75,0,0],[1,0,0],[0,1,0],[0.25,1,0],[0.5,1,0],[0.75,1,0],[1,1,0],[0,0.25,0],[0,0.5,0],[0,0.75,0],[1,0.25,0],[1,0.5,0],[1,0.75,0]];outlineConnect=0;fontColor=#232F3E;fillColor=#8C4FFF;strokeColor=#ffffff;dashed=0;verticalLabelPosition=bottom;verticalAlign=top;align=center;html=1;fontSize=14;fontStyle=0;aspect=fixed;shape=mxgraph.aws4.resourceIcon;resIcon=mxgraph.aws4.route_53;" parent="lu0znOIndSDiGiOmnlGc-1" vertex="1">
          <mxGeometry x="55.129999999999995" y="336" width="49" height="49" as="geometry" />
        </mxCell>
        <mxCell id="teR93byTSqqBIhb2rqv4-20" value="" style="endArrow=open;html=1;rounded=0;strokeColor=#545B64;endFill=0;dashed=1;fontSize=14;" parent="lu0znOIndSDiGiOmnlGc-1" source="teR93byTSqqBIhb2rqv4-17" target="teR93byTSqqBIhb2rqv4-13" edge="1">
          <mxGeometry width="50" height="50" relative="1" as="geometry">
            <mxPoint x="23" y="375.0685483870968" as="sourcePoint" />
            <mxPoint x="102" y="375" as="targetPoint" />
          </mxGeometry>
        </mxCell>
        <mxCell id="teR93byTSqqBIhb2rqv4-21" value="" style="sketch=0;points=[[0,0,0],[0.25,0,0],[0.5,0,0],[0.75,0,0],[1,0,0],[0,1,0],[0.25,1,0],[0.5,1,0],[0.75,1,0],[1,1,0],[0,0.25,0],[0,0.5,0],[0,0.75,0],[1,0.25,0],[1,0.5,0],[1,0.75,0]];outlineConnect=0;fontColor=#232F3E;fillColor=#E7157B;strokeColor=#ffffff;dashed=0;verticalLabelPosition=bottom;verticalAlign=top;align=center;html=1;fontSize=14;fontStyle=0;aspect=fixed;shape=mxgraph.aws4.resourceIcon;resIcon=mxgraph.aws4.api_gateway;" parent="lu0znOIndSDiGiOmnlGc-1" vertex="1">
          <mxGeometry x="176" y="208" width="49.5" height="49.5" as="geometry" />
        </mxCell>
        <mxCell id="teR93byTSqqBIhb2rqv4-23" value="" style="endArrow=open;html=1;rounded=0;strokeColor=#545B64;entryX=0.5;entryY=0;entryDx=0;entryDy=0;entryPerimeter=0;endFill=0;startArrow=open;startFill=0;fontSize=14;" parent="lu0znOIndSDiGiOmnlGc-1" source="teR93byTSqqBIhb2rqv4-21" target="teR93byTSqqBIhb2rqv4-15" edge="1">
          <mxGeometry width="50" height="50" relative="1" as="geometry">
            <mxPoint x="77" y="286" as="sourcePoint" />
            <mxPoint x="153" y="286" as="targetPoint" />
          </mxGeometry>
        </mxCell>
        <mxCell id="teR93byTSqqBIhb2rqv4-24" value="" style="endArrow=open;html=1;rounded=0;strokeColor=#545B64;endFill=0;dashed=1;fontSize=14;" parent="lu0znOIndSDiGiOmnlGc-1" target="teR93byTSqqBIhb2rqv4-10" edge="1">
          <mxGeometry width="50" height="50" relative="1" as="geometry">
            <mxPoint x="227" y="362" as="sourcePoint" />
            <mxPoint x="101" y="250" as="targetPoint" />
            <Array as="points" />
          </mxGeometry>
        </mxCell>
        <mxCell id="teR93byTSqqBIhb2rqv4-25" value="AWS WAF" style="text;html=1;align=center;verticalAlign=middle;resizable=0;points=[];autosize=1;strokeColor=none;fillColor=none;fontSize=14;" parent="lu0znOIndSDiGiOmnlGc-1" vertex="1">
          <mxGeometry x="158" y="395" width="84" height="29" as="geometry" />
        </mxCell>
        <mxCell id="teR93byTSqqBIhb2rqv4-26" value="DNS Resolution" style="text;html=1;align=center;verticalAlign=middle;resizable=0;points=[];autosize=1;strokeColor=none;fillColor=none;fontSize=14;" parent="lu0znOIndSDiGiOmnlGc-1" vertex="1">
          <mxGeometry x="20.63" y="397" width="118" height="29" as="geometry" />
        </mxCell>
        <mxCell id="teR93byTSqqBIhb2rqv4-27" value="API Gateway" style="text;html=1;align=center;verticalAlign=middle;resizable=0;points=[];autosize=1;strokeColor=none;fillColor=none;fontSize=14;" parent="lu0znOIndSDiGiOmnlGc-1" vertex="1">
          <mxGeometry x="155" y="175" width="100" height="29" as="geometry" />
        </mxCell>
        <mxCell id="teR93byTSqqBIhb2rqv4-96" value="" style="sketch=0;points=[[0,0,0],[0.25,0,0],[0.5,0,0],[0.75,0,0],[1,0,0],[0,1,0],[0.25,1,0],[0.5,1,0],[0.75,1,0],[1,1,0],[0,0.25,0],[0,0.5,0],[0,0.75,0],[1,0.25,0],[1,0.5,0],[1,0.75,0]];points=[[0,0,0],[0.25,0,0],[0.5,0,0],[0.75,0,0],[1,0,0],[0,1,0],[0.25,1,0],[0.5,1,0],[0.75,1,0],[1,1,0],[0,0.25,0],[0,0.5,0],[0,0.75,0],[1,0.25,0],[1,0.5,0],[1,0.75,0]];outlineConnect=0;fontColor=#232F3E;fillColor=#E7157B;strokeColor=#ffffff;dashed=0;verticalLabelPosition=bottom;verticalAlign=top;align=center;html=1;fontSize=14;fontStyle=0;aspect=fixed;shape=mxgraph.aws4.resourceIcon;resIcon=mxgraph.aws4.cloudwatch_2;" parent="lu0znOIndSDiGiOmnlGc-1" vertex="1">
          <mxGeometry x="192" y="618" width="65" height="65" as="geometry" />
        </mxCell>
        <mxCell id="teR93byTSqqBIhb2rqv4-97" value="&lt;div&gt;CloudWatch&lt;/div&gt;" style="text;html=1;align=center;verticalAlign=middle;resizable=0;points=[];autosize=1;strokeColor=none;fillColor=none;fontSize=14;" parent="lu0znOIndSDiGiOmnlGc-1" vertex="1">
          <mxGeometry x="185.5" y="694" width="94" height="29" as="geometry" />
        </mxCell>
        <mxCell id="teR93byTSqqBIhb2rqv4-130" value="" style="sketch=0;points=[[0,0,0],[0.25,0,0],[0.5,0,0],[0.75,0,0],[1,0,0],[0,1,0],[0.25,1,0],[0.5,1,0],[0.75,1,0],[1,1,0],[0,0.25,0],[0,0.5,0],[0,0.75,0],[1,0.25,0],[1,0.5,0],[1,0.75,0]];outlineConnect=0;fontColor=#232F3E;fillColor=#7AA116;strokeColor=#ffffff;dashed=0;verticalLabelPosition=bottom;verticalAlign=top;align=center;html=1;fontSize=14;fontStyle=0;aspect=fixed;shape=mxgraph.aws4.resourceIcon;resIcon=mxgraph.aws4.cost_explorer;" parent="lu0znOIndSDiGiOmnlGc-1" vertex="1">
          <mxGeometry x="74" y="828" width="69" height="69" as="geometry" />
        </mxCell>
        <mxCell id="teR93byTSqqBIhb2rqv4-131" value="AWS&amp;nbsp;&lt;div&gt;Cost Explorer&lt;/div&gt;" style="text;html=1;align=center;verticalAlign=middle;resizable=0;points=[];autosize=1;strokeColor=none;fillColor=none;fontSize=14;" parent="lu0znOIndSDiGiOmnlGc-1" vertex="1">
          <mxGeometry x="55" y="785" width="103" height="46" as="geometry" />
        </mxCell>
        <mxCell id="teR93byTSqqBIhb2rqv4-132" value="" style="sketch=0;points=[[0,0,0],[0.25,0,0],[0.5,0,0],[0.75,0,0],[1,0,0],[0,1,0],[0.25,1,0],[0.5,1,0],[0.75,1,0],[1,1,0],[0,0.25,0],[0,0.5,0],[0,0.75,0],[1,0.25,0],[1,0.5,0],[1,0.75,0]];outlineConnect=0;fontColor=#232F3E;fillColor=#7AA116;strokeColor=#ffffff;dashed=0;verticalLabelPosition=bottom;verticalAlign=top;align=center;html=1;fontSize=14;fontStyle=0;aspect=fixed;shape=mxgraph.aws4.resourceIcon;resIcon=mxgraph.aws4.budgets_2;" parent="lu0znOIndSDiGiOmnlGc-1" vertex="1">
          <mxGeometry x="194" y="828" width="67" height="67" as="geometry" />
        </mxCell>
        <mxCell id="teR93byTSqqBIhb2rqv4-133" value="Budgets" style="text;html=1;align=center;verticalAlign=middle;resizable=0;points=[];autosize=1;strokeColor=none;fillColor=none;fontSize=14;" parent="lu0znOIndSDiGiOmnlGc-1" vertex="1">
          <mxGeometry x="192" y="799" width="69" height="29" as="geometry" />
        </mxCell>
        <mxCell id="teR93byTSqqBIhb2rqv4-134" value="&lt;div&gt;Gerenciamento de Custos&lt;/div&gt;" style="fillColor=none;strokeColor=#5A6C86;dashed=1;verticalAlign=top;fontStyle=0;fontColor=#5A6C86;whiteSpace=wrap;html=1;fontSize=14;" parent="lu0znOIndSDiGiOmnlGc-1" vertex="1">
          <mxGeometry x="41.13" y="758" width="273" height="153" as="geometry" />
        </mxCell>
        <mxCell id="teR93byTSqqBIhb2rqv4-135" value="" style="sketch=0;points=[[0,0,0],[0.25,0,0],[0.5,0,0],[0.75,0,0],[1,0,0],[0,1,0],[0.25,1,0],[0.5,1,0],[0.75,1,0],[1,1,0],[0,0.25,0],[0,0.5,0],[0,0.75,0],[1,0.25,0],[1,0.5,0],[1,0.75,0]];outlineConnect=0;fontColor=#232F3E;fillColor=#DD344C;strokeColor=#ffffff;dashed=0;verticalLabelPosition=bottom;verticalAlign=top;align=center;html=1;fontSize=14;fontStyle=0;aspect=fixed;shape=mxgraph.aws4.resourceIcon;resIcon=mxgraph.aws4.shield;" parent="lu0znOIndSDiGiOmnlGc-1" vertex="1">
          <mxGeometry x="76.37" y="449.5" width="64" height="64" as="geometry" />
        </mxCell>
        <mxCell id="teR93byTSqqBIhb2rqv4-136" value="AWS Shield" style="text;html=1;align=center;verticalAlign=middle;resizable=0;points=[];autosize=1;strokeColor=none;fillColor=none;fontSize=14;" parent="lu0znOIndSDiGiOmnlGc-1" vertex="1">
          <mxGeometry x="67" y="520" width="92" height="29" as="geometry" />
        </mxCell>
        <mxCell id="teR93byTSqqBIhb2rqv4-139" value="" style="sketch=0;points=[[0,0,0],[0.25,0,0],[0.5,0,0],[0.75,0,0],[1,0,0],[0,1,0],[0.25,1,0],[0.5,1,0],[0.75,1,0],[1,1,0],[0,0.25,0],[0,0.5,0],[0,0.75,0],[1,0.25,0],[1,0.5,0],[1,0.75,0]];outlineConnect=0;fontColor=#232F3E;fillColor=#8C4FFF;strokeColor=#ffffff;dashed=0;verticalLabelPosition=bottom;verticalAlign=top;align=center;html=1;fontSize=14;fontStyle=0;aspect=fixed;shape=mxgraph.aws4.resourceIcon;resIcon=mxgraph.aws4.elasticsearch_service;" parent="lu0znOIndSDiGiOmnlGc-1" vertex="1">
          <mxGeometry x="87" y="617" width="63" height="63" as="geometry" />
        </mxCell>
        <mxCell id="teR93byTSqqBIhb2rqv4-141" value="Elastic Search " style="text;html=1;align=center;verticalAlign=middle;resizable=0;points=[];autosize=1;strokeColor=none;fillColor=none;fontSize=14;" parent="lu0znOIndSDiGiOmnlGc-1" vertex="1">
          <mxGeometry x="68" y="693.5" width="107" height="29" as="geometry" />
        </mxCell>
        <mxCell id="teR93byTSqqBIhb2rqv4-149" value="" style="sketch=0;outlineConnect=0;fontColor=#232F3E;gradientColor=none;fillColor=#DD344C;strokeColor=none;dashed=0;verticalLabelPosition=bottom;verticalAlign=top;align=center;html=1;fontSize=14;fontStyle=0;aspect=fixed;pointerEvents=1;shape=mxgraph.aws4.identity_access_management_iam_roles_anywhere;" parent="lu0znOIndSDiGiOmnlGc-1" vertex="1">
          <mxGeometry x="219" y="455" width="64" height="64" as="geometry" />
        </mxCell>
        <mxCell id="teR93byTSqqBIhb2rqv4-150" value="IAM Roles" style="text;html=1;align=center;verticalAlign=middle;resizable=0;points=[];autosize=1;strokeColor=none;fillColor=none;fontSize=14;" parent="lu0znOIndSDiGiOmnlGc-1" vertex="1">
          <mxGeometry x="204.5" y="521" width="83" height="29" as="geometry" />
        </mxCell>
        <mxCell id="lu0znOIndSDiGiOmnlGc-5" value="&lt;font color=&quot;#8c4fff&quot;&gt;&lt;b&gt;VPC 10.0.0.0/16&lt;/b&gt;&lt;/font&gt;" style="points=[[0,0],[0.25,0],[0.5,0],[0.75,0],[1,0],[1,0.25],[1,0.5],[1,0.75],[1,1],[0.75,1],[0.5,1],[0.25,1],[0,1],[0,0.75],[0,0.5],[0,0.25]];outlineConnect=0;gradientColor=none;html=1;whiteSpace=wrap;fontSize=14;fontStyle=0;container=1;pointerEvents=0;collapsible=0;recursiveResize=0;shape=mxgraph.aws4.group;grIcon=mxgraph.aws4.group_vpc2;strokeColor=#8C4FFF;fillColor=none;verticalAlign=top;align=left;spacingLeft=30;fontColor=#AAB7B8;dashed=0;" parent="1" vertex="1">
          <mxGeometry x="-17" y="226" width="1573" height="841" as="geometry" />
        </mxCell>
        <mxCell id="lu0znOIndSDiGiOmnlGc-10" value="Availability Zone" style="fillColor=none;strokeColor=#147EBA;dashed=1;verticalAlign=top;fontStyle=0;fontColor=#147EBA;whiteSpace=wrap;html=1;fontSize=14;" parent="lu0znOIndSDiGiOmnlGc-5" vertex="1">
          <mxGeometry x="29" y="83" width="710" height="738" as="geometry" />
        </mxCell>
        <mxCell id="lu0znOIndSDiGiOmnlGc-12" value="Public subnet" style="points=[[0,0],[0.25,0],[0.5,0],[0.75,0],[1,0],[1,0.25],[1,0.5],[1,0.75],[1,1],[0.75,1],[0.5,1],[0.25,1],[0,1],[0,0.75],[0,0.5],[0,0.25]];outlineConnect=0;gradientColor=none;html=1;whiteSpace=wrap;fontSize=14;fontStyle=0;container=1;pointerEvents=0;collapsible=0;recursiveResize=0;shape=mxgraph.aws4.group;grIcon=mxgraph.aws4.group_security_group;grStroke=0;strokeColor=#7AA116;fillColor=#F2F6E8;verticalAlign=top;align=left;spacingLeft=30;fontColor=#248814;dashed=0;" parent="lu0znOIndSDiGiOmnlGc-5" vertex="1">
          <mxGeometry x="44" y="111" width="675" height="264" as="geometry" />
        </mxCell>
        <mxCell id="teR93byTSqqBIhb2rqv4-102" value="" style="sketch=0;outlineConnect=0;fontColor=#232F3E;gradientColor=none;fillColor=#8C4FFF;strokeColor=none;dashed=0;verticalLabelPosition=bottom;verticalAlign=top;align=center;html=1;fontSize=14;fontStyle=0;aspect=fixed;pointerEvents=1;shape=mxgraph.aws4.nat_gateway;" parent="lu0znOIndSDiGiOmnlGc-12" vertex="1">
          <mxGeometry x="120" y="164" width="50" height="50" as="geometry" />
        </mxCell>
        <mxCell id="teR93byTSqqBIhb2rqv4-119" value="Bastion host" style="text;html=1;align=center;verticalAlign=middle;resizable=0;points=[];autosize=1;strokeColor=none;fillColor=none;fontSize=14;" parent="lu0znOIndSDiGiOmnlGc-12" vertex="1">
          <mxGeometry x="191.5" y="110" width="95" height="29" as="geometry" />
        </mxCell>
        <mxCell id="lu0znOIndSDiGiOmnlGc-17" value="Private subnet" style="points=[[0,0],[0.25,0],[0.5,0],[0.75,0],[1,0],[1,0.25],[1,0.5],[1,0.75],[1,1],[0.75,1],[0.5,1],[0.25,1],[0,1],[0,0.75],[0,0.5],[0,0.25]];outlineConnect=0;gradientColor=none;html=1;whiteSpace=wrap;fontSize=14;fontStyle=0;container=1;pointerEvents=0;collapsible=0;recursiveResize=0;shape=mxgraph.aws4.group;grIcon=mxgraph.aws4.group_security_group;grStroke=0;strokeColor=#00A4A6;fillColor=#E6F6F7;verticalAlign=top;align=left;spacingLeft=30;fontColor=#147EBA;dashed=0;" parent="lu0znOIndSDiGiOmnlGc-5" vertex="1">
          <mxGeometry x="44" y="388" width="672" height="412" as="geometry" />
        </mxCell>
        <mxCell id="teR93byTSqqBIhb2rqv4-124" value="ElastiCache&amp;nbsp;&lt;div&gt;for Redis&lt;/div&gt;" style="text;html=1;align=center;verticalAlign=middle;resizable=0;points=[];autosize=1;strokeColor=none;fillColor=none;fontSize=14;" parent="lu0znOIndSDiGiOmnlGc-17" vertex="1">
          <mxGeometry x="291.76" y="114" width="97" height="46" as="geometry" />
        </mxCell>
        <mxCell id="teR93byTSqqBIhb2rqv4-143" value="" style="sketch=0;outlineConnect=0;fontColor=#232F3E;gradientColor=none;fillColor=#C925D1;strokeColor=none;dashed=0;verticalLabelPosition=bottom;verticalAlign=top;align=center;html=1;fontSize=14;fontStyle=0;aspect=fixed;pointerEvents=1;shape=mxgraph.aws4.rds_multi_az_db_cluster;" parent="lu0znOIndSDiGiOmnlGc-17" vertex="1">
          <mxGeometry x="171" y="52" width="57.75" height="57.75" as="geometry" />
        </mxCell>
        <mxCell id="teR93byTSqqBIhb2rqv4-147" value="" style="sketch=0;outlineConnect=0;fontColor=#232F3E;gradientColor=none;fillColor=#C925D1;strokeColor=none;dashed=0;verticalLabelPosition=bottom;verticalAlign=top;align=center;html=1;fontSize=14;fontStyle=0;aspect=fixed;pointerEvents=1;shape=mxgraph.aws4.elasticache_for_redis;" parent="lu0znOIndSDiGiOmnlGc-17" vertex="1">
          <mxGeometry x="312" y="55.88" width="56.52" height="50" as="geometry" />
        </mxCell>
        <mxCell id="teR93byTSqqBIhb2rqv4-35" value="Elastic Container Service&lt;div&gt;&amp;nbsp;for Kubernetes (EKS)&lt;/div&gt;" style="text;html=1;align=center;verticalAlign=middle;resizable=0;points=[];autosize=1;strokeColor=none;fillColor=none;fontSize=14;" parent="lu0znOIndSDiGiOmnlGc-5" vertex="1">
          <mxGeometry x="484" y="662" width="174" height="46" as="geometry" />
        </mxCell>
        <mxCell id="teR93byTSqqBIhb2rqv4-69" value="" style="aspect=fixed;sketch=0;html=1;dashed=0;whitespace=wrap;verticalLabelPosition=bottom;verticalAlign=top;fillColor=#2875E2;strokeColor=#ffffff;points=[[0.005,0.63,0],[0.1,0.2,0],[0.9,0.2,0],[0.5,0,0],[0.995,0.63,0],[0.72,0.99,0],[0.5,1,0],[0.28,0.99,0]];shape=mxgraph.kubernetes.icon2;kubernetesLabel=1;prIcon=node;fontSize=14;" parent="lu0znOIndSDiGiOmnlGc-5" vertex="1">
          <mxGeometry x="137" y="627" width="50" height="48" as="geometry" />
        </mxCell>
        <mxCell id="teR93byTSqqBIhb2rqv4-79" value="Multi-AZ for RDS" style="text;html=1;align=center;verticalAlign=middle;resizable=0;points=[];autosize=1;strokeColor=none;fillColor=none;fontSize=14;" parent="lu0znOIndSDiGiOmnlGc-5" vertex="1">
          <mxGeometry x="175.4" y="493" width="124" height="29" as="geometry" />
        </mxCell>
        <mxCell id="teR93byTSqqBIhb2rqv4-80" value="" style="sketch=0;outlineConnect=0;fontColor=#232F3E;gradientColor=none;fillColor=#8C4FFF;strokeColor=none;dashed=0;verticalLabelPosition=bottom;verticalAlign=top;align=center;html=1;fontSize=14;fontStyle=0;aspect=fixed;pointerEvents=1;shape=mxgraph.aws4.network_load_balancer;" parent="lu0znOIndSDiGiOmnlGc-5" vertex="1">
          <mxGeometry x="385" y="20" width="57" height="57" as="geometry" />
        </mxCell>
        <mxCell id="teR93byTSqqBIhb2rqv4-81" value="Network Load Balance" style="text;html=1;align=center;verticalAlign=middle;resizable=0;points=[];autosize=1;strokeColor=none;fillColor=none;fontSize=14;" parent="lu0znOIndSDiGiOmnlGc-5" vertex="1">
          <mxGeometry x="351" y="-1" width="159" height="29" as="geometry" />
        </mxCell>
        <mxCell id="teR93byTSqqBIhb2rqv4-91" value="" style="sketch=0;points=[[0,0,0],[0.25,0,0],[0.5,0,0],[0.75,0,0],[1,0,0],[0,1,0],[0.25,1,0],[0.5,1,0],[0.75,1,0],[1,1,0],[0,0.25,0],[0,0.5,0],[0,0.75,0],[1,0.25,0],[1,0.5,0],[1,0.75,0]];outlineConnect=0;fontColor=#232F3E;fillColor=#ED7100;strokeColor=#ffffff;dashed=0;verticalLabelPosition=bottom;verticalAlign=top;align=center;html=1;fontSize=14;fontStyle=0;aspect=fixed;shape=mxgraph.aws4.resourceIcon;resIcon=mxgraph.aws4.elastic_load_balancing;" parent="lu0znOIndSDiGiOmnlGc-5" vertex="1">
          <mxGeometry x="374" y="246" width="51" height="51" as="geometry" />
        </mxCell>
        <mxCell id="teR93byTSqqBIhb2rqv4-100" value="" style="aspect=fixed;sketch=0;html=1;dashed=0;whitespace=wrap;verticalLabelPosition=bottom;verticalAlign=top;fillColor=#2875E2;strokeColor=#ffffff;points=[[0.005,0.63,0],[0.1,0.2,0],[0.9,0.2,0],[0.5,0,0],[0.995,0.63,0],[0.72,0.99,0],[0.5,1,0],[0.28,0.99,0]];shape=mxgraph.kubernetes.icon2;kubernetesLabel=1;prIcon=node;fontSize=14;" parent="lu0znOIndSDiGiOmnlGc-5" vertex="1">
          <mxGeometry x="76" y="626" width="49.99" height="48" as="geometry" />
        </mxCell>
        <mxCell id="teR93byTSqqBIhb2rqv4-108" value="" style="points=[];aspect=fixed;html=1;align=center;shadow=0;dashed=0;fillColor=#FF6A00;strokeColor=none;shape=mxgraph.alibaba_cloud.bastionhost;fontSize=14;" parent="lu0znOIndSDiGiOmnlGc-5" vertex="1">
          <mxGeometry x="237" y="162.1" width="62.4" height="49.4" as="geometry" />
        </mxCell>
        <mxCell id="teR93byTSqqBIhb2rqv4-109" value="" style="outlineConnect=0;dashed=0;verticalLabelPosition=bottom;verticalAlign=top;align=center;html=1;shape=mxgraph.aws3.application_load_balancer;fillColor=#F58534;gradientColor=none;fontSize=14;" parent="lu0znOIndSDiGiOmnlGc-5" vertex="1">
          <mxGeometry x="472" y="189.5" width="54" height="53.5" as="geometry" />
        </mxCell>
        <mxCell id="teR93byTSqqBIhb2rqv4-110" value="" style="endArrow=open;html=1;rounded=0;strokeColor=#545B64;endFill=0;entryX=0.972;entryY=0.549;entryDx=0;entryDy=0;entryPerimeter=0;exitX=0;exitY=0.5;exitDx=0;exitDy=0;exitPerimeter=0;fontSize=14;" parent="lu0znOIndSDiGiOmnlGc-5" edge="1">
          <mxGeometry width="50" height="50" relative="1" as="geometry">
            <mxPoint x="472" y="229.25" as="sourcePoint" />
            <mxPoint x="297.65279999999984" y="197.22059999999988" as="targetPoint" />
            <Array as="points">
              <mxPoint x="384" y="229" />
              <mxPoint x="384" y="197" />
            </Array>
          </mxGeometry>
        </mxCell>
        <mxCell id="teR93byTSqqBIhb2rqv4-113" value="" style="endArrow=open;html=1;rounded=0;strokeColor=#545B64;endFill=0;exitX=0.088;exitY=0.787;exitDx=0;exitDy=0;exitPerimeter=0;fontSize=14;" parent="lu0znOIndSDiGiOmnlGc-5" source="teR93byTSqqBIhb2rqv4-108" target="teR93byTSqqBIhb2rqv4-102" edge="1">
          <mxGeometry width="50" height="50" relative="1" as="geometry">
            <mxPoint x="230" y="206" as="sourcePoint" />
            <mxPoint x="369" y="221" as="targetPoint" />
            <Array as="points">
              <mxPoint x="189" y="201" />
            </Array>
          </mxGeometry>
        </mxCell>
        <mxCell id="teR93byTSqqBIhb2rqv4-103" value="NAT Gateway" style="text;html=1;align=center;verticalAlign=middle;resizable=0;points=[];autosize=1;strokeColor=none;fillColor=none;fontSize=14;" parent="lu0znOIndSDiGiOmnlGc-5" vertex="1">
          <mxGeometry x="228" y="298" width="104" height="29" as="geometry" />
        </mxCell>
        <mxCell id="teR93byTSqqBIhb2rqv4-125" value="" style="sketch=0;points=[[0,0,0],[0.25,0,0],[0.5,0,0],[0.75,0,0],[1,0,0],[0,1,0],[0.25,1,0],[0.5,1,0],[0.75,1,0],[1,1,0],[0,0.25,0],[0,0.5,0],[0,0.75,0],[1,0.25,0],[1,0.5,0],[1,0.75,0]];outlineConnect=0;fontColor=#232F3E;fillColor=#C925D1;strokeColor=#ffffff;dashed=0;verticalLabelPosition=bottom;verticalAlign=top;align=center;html=1;fontSize=14;fontStyle=0;aspect=fixed;shape=mxgraph.aws4.resourceIcon;resIcon=mxgraph.aws4.xray;" parent="lu0znOIndSDiGiOmnlGc-5" vertex="1">
          <mxGeometry x="751" y="11" width="63" height="63" as="geometry" />
        </mxCell>
        <mxCell id="teR93byTSqqBIhb2rqv4-126" value="AWS X-Ray" style="text;html=1;align=center;verticalAlign=middle;resizable=0;points=[];autosize=1;strokeColor=none;fillColor=none;fontSize=14;" parent="lu0znOIndSDiGiOmnlGc-5" vertex="1">
          <mxGeometry x="647" y="28" width="92" height="29" as="geometry" />
        </mxCell>
        <mxCell id="teR93byTSqqBIhb2rqv4-92" value="Elastic Load&lt;div&gt;&amp;nbsp;Balance&lt;/div&gt;" style="text;html=1;align=center;verticalAlign=middle;resizable=0;points=[];autosize=1;strokeColor=none;fillColor=none;fontSize=14;" parent="lu0znOIndSDiGiOmnlGc-5" vertex="1">
          <mxGeometry x="356" y="297" width="94" height="46" as="geometry" />
        </mxCell>
        <mxCell id="teR93byTSqqBIhb2rqv4-93" value="" style="endArrow=open;html=1;rounded=0;strokeColor=#545B64;endFill=0;fontSize=14;" parent="lu0znOIndSDiGiOmnlGc-5" edge="1">
          <mxGeometry width="50" height="50" relative="1" as="geometry">
            <mxPoint x="211" y="288" as="sourcePoint" />
            <mxPoint x="375" y="288" as="targetPoint" />
            <Array as="points" />
          </mxGeometry>
        </mxCell>
        <mxCell id="teR93byTSqqBIhb2rqv4-34" value="" style="sketch=0;points=[[0,0,0],[0.25,0,0],[0.5,0,0],[0.75,0,0],[1,0,0],[0,1,0],[0.25,1,0],[0.5,1,0],[0.75,1,0],[1,1,0],[0,0.25,0],[0,0.5,0],[0,0.75,0],[1,0.25,0],[1,0.5,0],[1,0.75,0]];outlineConnect=0;fontColor=#232F3E;fillColor=#ED7100;strokeColor=#ffffff;dashed=0;verticalLabelPosition=bottom;verticalAlign=top;align=center;html=1;fontSize=14;fontStyle=0;aspect=fixed;shape=mxgraph.aws4.resourceIcon;resIcon=mxgraph.aws4.eks;" parent="lu0znOIndSDiGiOmnlGc-5" vertex="1">
          <mxGeometry x="549" y="605" width="51" height="51" as="geometry" />
        </mxCell>
        <mxCell id="VJbWYuFzF9R8M93_kXKf-10" value="" style="aspect=fixed;sketch=0;html=1;dashed=0;whitespace=wrap;verticalLabelPosition=bottom;verticalAlign=top;fillColor=#2875E2;strokeColor=#ffffff;points=[[0.005,0.63,0],[0.1,0.2,0],[0.9,0.2,0],[0.5,0,0],[0.995,0.63,0],[0.72,0.99,0],[0.5,1,0],[0.28,0.99,0]];shape=mxgraph.kubernetes.icon2;kubernetesLabel=1;prIcon=node;fontSize=14;" vertex="1" parent="lu0znOIndSDiGiOmnlGc-5">
          <mxGeometry x="271" y="626" width="50" height="48" as="geometry" />
        </mxCell>
        <mxCell id="VJbWYuFzF9R8M93_kXKf-11" style="edgeStyle=orthogonalEdgeStyle;rounded=0;orthogonalLoop=1;jettySize=auto;html=1;entryX=0.5;entryY=1;entryDx=0;entryDy=0;entryPerimeter=0;strokeColor=#545B64;fontSize=14;" edge="1" parent="lu0znOIndSDiGiOmnlGc-5">
          <mxGeometry relative="1" as="geometry">
            <mxPoint x="292" y="758" as="sourcePoint" />
            <mxPoint x="292" y="676" as="targetPoint" />
            <Array as="points" />
          </mxGeometry>
        </mxCell>
        <mxCell id="VJbWYuFzF9R8M93_kXKf-17" value="Availability Zone" style="fillColor=none;strokeColor=#147EBA;dashed=1;verticalAlign=top;fontStyle=0;fontColor=#147EBA;whiteSpace=wrap;html=1;fontSize=14;" vertex="1" parent="lu0znOIndSDiGiOmnlGc-5">
          <mxGeometry x="829" y="77" width="710" height="738" as="geometry" />
        </mxCell>
        <mxCell id="VJbWYuFzF9R8M93_kXKf-18" value="Public subnet" style="points=[[0,0],[0.25,0],[0.5,0],[0.75,0],[1,0],[1,0.25],[1,0.5],[1,0.75],[1,1],[0.75,1],[0.5,1],[0.25,1],[0,1],[0,0.75],[0,0.5],[0,0.25]];outlineConnect=0;gradientColor=none;html=1;whiteSpace=wrap;fontSize=14;fontStyle=0;container=1;pointerEvents=0;collapsible=0;recursiveResize=0;shape=mxgraph.aws4.group;grIcon=mxgraph.aws4.group_security_group;grStroke=0;strokeColor=#7AA116;fillColor=#F2F6E8;verticalAlign=top;align=left;spacingLeft=30;fontColor=#248814;dashed=0;" vertex="1" parent="lu0znOIndSDiGiOmnlGc-5">
          <mxGeometry x="844" y="105" width="675" height="264" as="geometry" />
        </mxCell>
        <mxCell id="VJbWYuFzF9R8M93_kXKf-19" value="" style="sketch=0;outlineConnect=0;fontColor=#232F3E;gradientColor=none;fillColor=#8C4FFF;strokeColor=none;dashed=0;verticalLabelPosition=bottom;verticalAlign=top;align=center;html=1;fontSize=14;fontStyle=0;aspect=fixed;pointerEvents=1;shape=mxgraph.aws4.nat_gateway;" vertex="1" parent="VJbWYuFzF9R8M93_kXKf-18">
          <mxGeometry x="120" y="164" width="50" height="50" as="geometry" />
        </mxCell>
        <mxCell id="VJbWYuFzF9R8M93_kXKf-20" value="Bastion host" style="text;html=1;align=center;verticalAlign=middle;resizable=0;points=[];autosize=1;strokeColor=none;fillColor=none;fontSize=14;" vertex="1" parent="VJbWYuFzF9R8M93_kXKf-18">
          <mxGeometry x="191.5" y="110" width="95" height="29" as="geometry" />
        </mxCell>
        <mxCell id="VJbWYuFzF9R8M93_kXKf-21" value="Private subnet" style="points=[[0,0],[0.25,0],[0.5,0],[0.75,0],[1,0],[1,0.25],[1,0.5],[1,0.75],[1,1],[0.75,1],[0.5,1],[0.25,1],[0,1],[0,0.75],[0,0.5],[0,0.25]];outlineConnect=0;gradientColor=none;html=1;whiteSpace=wrap;fontSize=14;fontStyle=0;container=1;pointerEvents=0;collapsible=0;recursiveResize=0;shape=mxgraph.aws4.group;grIcon=mxgraph.aws4.group_security_group;grStroke=0;strokeColor=#00A4A6;fillColor=#E6F6F7;verticalAlign=top;align=left;spacingLeft=30;fontColor=#147EBA;dashed=0;" vertex="1" parent="lu0znOIndSDiGiOmnlGc-5">
          <mxGeometry x="844" y="382" width="672" height="412" as="geometry" />
        </mxCell>
        <mxCell id="VJbWYuFzF9R8M93_kXKf-22" value="ElastiCache&amp;nbsp;&lt;div&gt;for Redis&lt;/div&gt;" style="text;html=1;align=center;verticalAlign=middle;resizable=0;points=[];autosize=1;strokeColor=none;fillColor=none;fontSize=14;" vertex="1" parent="VJbWYuFzF9R8M93_kXKf-21">
          <mxGeometry x="291.76" y="114" width="97" height="46" as="geometry" />
        </mxCell>
        <mxCell id="VJbWYuFzF9R8M93_kXKf-23" value="" style="sketch=0;outlineConnect=0;fontColor=#232F3E;gradientColor=none;fillColor=#C925D1;strokeColor=none;dashed=0;verticalLabelPosition=bottom;verticalAlign=top;align=center;html=1;fontSize=14;fontStyle=0;aspect=fixed;pointerEvents=1;shape=mxgraph.aws4.rds_multi_az_db_cluster;" vertex="1" parent="VJbWYuFzF9R8M93_kXKf-21">
          <mxGeometry x="171" y="52" width="57.75" height="57.75" as="geometry" />
        </mxCell>
        <mxCell id="VJbWYuFzF9R8M93_kXKf-24" value="" style="sketch=0;outlineConnect=0;fontColor=#232F3E;gradientColor=none;fillColor=#C925D1;strokeColor=none;dashed=0;verticalLabelPosition=bottom;verticalAlign=top;align=center;html=1;fontSize=14;fontStyle=0;aspect=fixed;pointerEvents=1;shape=mxgraph.aws4.elasticache_for_redis;" vertex="1" parent="VJbWYuFzF9R8M93_kXKf-21">
          <mxGeometry x="312" y="55.88" width="56.52" height="50" as="geometry" />
        </mxCell>
        <mxCell id="VJbWYuFzF9R8M93_kXKf-25" value="Elastic Container Service&lt;div&gt;&amp;nbsp;for Kubernetes (EKS)&lt;/div&gt;" style="text;html=1;align=center;verticalAlign=middle;resizable=0;points=[];autosize=1;strokeColor=none;fillColor=none;fontSize=14;" vertex="1" parent="lu0znOIndSDiGiOmnlGc-5">
          <mxGeometry x="1284" y="656" width="174" height="46" as="geometry" />
        </mxCell>
        <mxCell id="VJbWYuFzF9R8M93_kXKf-26" value="" style="aspect=fixed;sketch=0;html=1;dashed=0;whitespace=wrap;verticalLabelPosition=bottom;verticalAlign=top;fillColor=#2875E2;strokeColor=#ffffff;points=[[0.005,0.63,0],[0.1,0.2,0],[0.9,0.2,0],[0.5,0,0],[0.995,0.63,0],[0.72,0.99,0],[0.5,1,0],[0.28,0.99,0]];shape=mxgraph.kubernetes.icon2;kubernetesLabel=1;prIcon=node;fontSize=14;" vertex="1" parent="lu0znOIndSDiGiOmnlGc-5">
          <mxGeometry x="937" y="621" width="50" height="48" as="geometry" />
        </mxCell>
        <mxCell id="VJbWYuFzF9R8M93_kXKf-27" value="Multi-AZ for RDS" style="text;html=1;align=center;verticalAlign=middle;resizable=0;points=[];autosize=1;strokeColor=none;fillColor=none;fontSize=14;" vertex="1" parent="lu0znOIndSDiGiOmnlGc-5">
          <mxGeometry x="975.4000000000001" y="487" width="124" height="29" as="geometry" />
        </mxCell>
        <mxCell id="VJbWYuFzF9R8M93_kXKf-28" value="" style="sketch=0;points=[[0,0,0],[0.25,0,0],[0.5,0,0],[0.75,0,0],[1,0,0],[0,1,0],[0.25,1,0],[0.5,1,0],[0.75,1,0],[1,1,0],[0,0.25,0],[0,0.5,0],[0,0.75,0],[1,0.25,0],[1,0.5,0],[1,0.75,0]];outlineConnect=0;fontColor=#232F3E;fillColor=#ED7100;strokeColor=#ffffff;dashed=0;verticalLabelPosition=bottom;verticalAlign=top;align=center;html=1;fontSize=14;fontStyle=0;aspect=fixed;shape=mxgraph.aws4.resourceIcon;resIcon=mxgraph.aws4.elastic_load_balancing;" vertex="1" parent="lu0znOIndSDiGiOmnlGc-5">
          <mxGeometry x="1174" y="240" width="51" height="51" as="geometry" />
        </mxCell>
        <mxCell id="VJbWYuFzF9R8M93_kXKf-29" value="" style="aspect=fixed;sketch=0;html=1;dashed=0;whitespace=wrap;verticalLabelPosition=bottom;verticalAlign=top;fillColor=#2875E2;strokeColor=#ffffff;points=[[0.005,0.63,0],[0.1,0.2,0],[0.9,0.2,0],[0.5,0,0],[0.995,0.63,0],[0.72,0.99,0],[0.5,1,0],[0.28,0.99,0]];shape=mxgraph.kubernetes.icon2;kubernetesLabel=1;prIcon=node;fontSize=14;" vertex="1" parent="lu0znOIndSDiGiOmnlGc-5">
          <mxGeometry x="876" y="620" width="49.99" height="48" as="geometry" />
        </mxCell>
        <mxCell id="VJbWYuFzF9R8M93_kXKf-30" value="" style="points=[];aspect=fixed;html=1;align=center;shadow=0;dashed=0;fillColor=#FF6A00;strokeColor=none;shape=mxgraph.alibaba_cloud.bastionhost;fontSize=14;" vertex="1" parent="lu0znOIndSDiGiOmnlGc-5">
          <mxGeometry x="1037" y="156.10000000000002" width="62.4" height="49.4" as="geometry" />
        </mxCell>
        <mxCell id="VJbWYuFzF9R8M93_kXKf-31" value="" style="outlineConnect=0;dashed=0;verticalLabelPosition=bottom;verticalAlign=top;align=center;html=1;shape=mxgraph.aws3.application_load_balancer;fillColor=#F58534;gradientColor=none;fontSize=14;" vertex="1" parent="lu0znOIndSDiGiOmnlGc-5">
          <mxGeometry x="1272" y="183.5" width="54" height="53.5" as="geometry" />
        </mxCell>
        <mxCell id="VJbWYuFzF9R8M93_kXKf-32" value="" style="endArrow=open;html=1;rounded=0;strokeColor=#545B64;endFill=0;entryX=0.972;entryY=0.549;entryDx=0;entryDy=0;entryPerimeter=0;exitX=0;exitY=0.5;exitDx=0;exitDy=0;exitPerimeter=0;fontSize=14;" edge="1" parent="lu0znOIndSDiGiOmnlGc-5">
          <mxGeometry width="50" height="50" relative="1" as="geometry">
            <mxPoint x="1272" y="223.25" as="sourcePoint" />
            <mxPoint x="1097.6527999999998" y="191.22059999999988" as="targetPoint" />
            <Array as="points">
              <mxPoint x="1184" y="223" />
              <mxPoint x="1184" y="191" />
            </Array>
          </mxGeometry>
        </mxCell>
        <mxCell id="VJbWYuFzF9R8M93_kXKf-33" value="" style="endArrow=open;html=1;rounded=0;strokeColor=#545B64;endFill=0;exitX=0.088;exitY=0.787;exitDx=0;exitDy=0;exitPerimeter=0;fontSize=14;" edge="1" parent="lu0znOIndSDiGiOmnlGc-5" source="VJbWYuFzF9R8M93_kXKf-30" target="VJbWYuFzF9R8M93_kXKf-19">
          <mxGeometry width="50" height="50" relative="1" as="geometry">
            <mxPoint x="1030" y="200" as="sourcePoint" />
            <mxPoint x="1169" y="215" as="targetPoint" />
            <Array as="points">
              <mxPoint x="989" y="195" />
            </Array>
          </mxGeometry>
        </mxCell>
        <mxCell id="VJbWYuFzF9R8M93_kXKf-34" value="NAT Gateway" style="text;html=1;align=center;verticalAlign=middle;resizable=0;points=[];autosize=1;strokeColor=none;fillColor=none;fontSize=14;" vertex="1" parent="lu0znOIndSDiGiOmnlGc-5">
          <mxGeometry x="1028" y="292" width="104" height="29" as="geometry" />
        </mxCell>
        <mxCell id="VJbWYuFzF9R8M93_kXKf-35" value="Elastic Load&lt;div&gt;&amp;nbsp;Balance&lt;/div&gt;" style="text;html=1;align=center;verticalAlign=middle;resizable=0;points=[];autosize=1;strokeColor=none;fillColor=none;fontSize=14;" vertex="1" parent="lu0znOIndSDiGiOmnlGc-5">
          <mxGeometry x="1156" y="291" width="94" height="46" as="geometry" />
        </mxCell>
        <mxCell id="VJbWYuFzF9R8M93_kXKf-36" value="" style="endArrow=open;html=1;rounded=0;strokeColor=#545B64;endFill=0;fontSize=14;" edge="1" parent="lu0znOIndSDiGiOmnlGc-5">
          <mxGeometry width="50" height="50" relative="1" as="geometry">
            <mxPoint x="1011" y="282" as="sourcePoint" />
            <mxPoint x="1175" y="282" as="targetPoint" />
            <Array as="points" />
          </mxGeometry>
        </mxCell>
        <mxCell id="VJbWYuFzF9R8M93_kXKf-37" value="" style="sketch=0;points=[[0,0,0],[0.25,0,0],[0.5,0,0],[0.75,0,0],[1,0,0],[0,1,0],[0.25,1,0],[0.5,1,0],[0.75,1,0],[1,1,0],[0,0.25,0],[0,0.5,0],[0,0.75,0],[1,0.25,0],[1,0.5,0],[1,0.75,0]];outlineConnect=0;fontColor=#232F3E;fillColor=#ED7100;strokeColor=#ffffff;dashed=0;verticalLabelPosition=bottom;verticalAlign=top;align=center;html=1;fontSize=14;fontStyle=0;aspect=fixed;shape=mxgraph.aws4.resourceIcon;resIcon=mxgraph.aws4.eks;" vertex="1" parent="lu0znOIndSDiGiOmnlGc-5">
          <mxGeometry x="1349" y="599" width="51" height="51" as="geometry" />
        </mxCell>
        <mxCell id="VJbWYuFzF9R8M93_kXKf-38" value="" style="aspect=fixed;sketch=0;html=1;dashed=0;whitespace=wrap;verticalLabelPosition=bottom;verticalAlign=top;fillColor=#2875E2;strokeColor=#ffffff;points=[[0.005,0.63,0],[0.1,0.2,0],[0.9,0.2,0],[0.5,0,0],[0.995,0.63,0],[0.72,0.99,0],[0.5,1,0],[0.28,0.99,0]];shape=mxgraph.kubernetes.icon2;kubernetesLabel=1;prIcon=node;fontSize=14;" vertex="1" parent="lu0znOIndSDiGiOmnlGc-5">
          <mxGeometry x="1071" y="620" width="50" height="48" as="geometry" />
        </mxCell>
        <mxCell id="VJbWYuFzF9R8M93_kXKf-39" style="edgeStyle=orthogonalEdgeStyle;rounded=0;orthogonalLoop=1;jettySize=auto;html=1;entryX=0.5;entryY=1;entryDx=0;entryDy=0;entryPerimeter=0;strokeColor=#545B64;fontSize=14;" edge="1" parent="lu0znOIndSDiGiOmnlGc-5">
          <mxGeometry relative="1" as="geometry">
            <mxPoint x="1092" y="752" as="sourcePoint" />
            <mxPoint x="1092" y="670" as="targetPoint" />
            <Array as="points" />
          </mxGeometry>
        </mxCell>
        <mxCell id="VJbWYuFzF9R8M93_kXKf-40" value="Auto Scaling group" style="points=[[0,0],[0.25,0],[0.5,0],[0.75,0],[1,0],[1,0.25],[1,0.5],[1,0.75],[1,1],[0.75,1],[0.5,1],[0.25,1],[0,1],[0,0.75],[0,0.5],[0,0.25]];outlineConnect=0;gradientColor=none;html=1;whiteSpace=wrap;fontSize=14;fontStyle=0;container=1;pointerEvents=0;collapsible=0;recursiveResize=0;shape=mxgraph.aws4.groupCenter;grIcon=mxgraph.aws4.group_auto_scaling_group;grStroke=1;strokeColor=#D86613;fillColor=none;verticalAlign=top;align=center;fontColor=#D86613;dashed=1;spacingTop=25;" vertex="1" parent="lu0znOIndSDiGiOmnlGc-5">
          <mxGeometry x="871" y="559" width="623" height="159" as="geometry" />
        </mxCell>
        <mxCell id="VJbWYuFzF9R8M93_kXKf-41" value="" style="aspect=fixed;sketch=0;html=1;dashed=0;whitespace=wrap;verticalLabelPosition=bottom;verticalAlign=top;fillColor=#2875E2;strokeColor=#ffffff;points=[[0.005,0.63,0],[0.1,0.2,0],[0.9,0.2,0],[0.5,0,0],[0.995,0.63,0],[0.72,0.99,0],[0.5,1,0],[0.28,0.99,0]];shape=mxgraph.kubernetes.icon2;kubernetesLabel=1;prIcon=node;fontSize=14;" vertex="1" parent="VJbWYuFzF9R8M93_kXKf-40">
          <mxGeometry x="265" y="58.5" width="50" height="48" as="geometry" />
        </mxCell>
        <mxCell id="VJbWYuFzF9R8M93_kXKf-42" value="" style="aspect=fixed;sketch=0;html=1;dashed=0;whitespace=wrap;verticalLabelPosition=bottom;verticalAlign=top;fillColor=#2875E2;strokeColor=#ffffff;points=[[0.005,0.63,0],[0.1,0.2,0],[0.9,0.2,0],[0.5,0,0],[0.995,0.63,0],[0.72,0.99,0],[0.5,1,0],[0.28,0.99,0]];shape=mxgraph.kubernetes.icon2;kubernetesLabel=1;prIcon=node;fontSize=14;" vertex="1" parent="VJbWYuFzF9R8M93_kXKf-40">
          <mxGeometry x="135" y="60" width="50" height="48" as="geometry" />
        </mxCell>
        <mxCell id="VJbWYuFzF9R8M93_kXKf-43" style="edgeStyle=orthogonalEdgeStyle;rounded=0;orthogonalLoop=1;jettySize=auto;html=1;strokeColor=#545B64;fontSize=14;" edge="1" parent="lu0znOIndSDiGiOmnlGc-5">
          <mxGeometry relative="1" as="geometry">
            <mxPoint x="1163" y="752" as="sourcePoint" />
            <mxPoint x="897" y="673" as="targetPoint" />
            <Array as="points" />
          </mxGeometry>
        </mxCell>
        <mxCell id="VJbWYuFzF9R8M93_kXKf-44" style="edgeStyle=orthogonalEdgeStyle;rounded=0;orthogonalLoop=1;jettySize=auto;html=1;entryX=0.5;entryY=1;entryDx=0;entryDy=0;entryPerimeter=0;strokeColor=#545B64;fontSize=14;" edge="1" parent="lu0znOIndSDiGiOmnlGc-5">
          <mxGeometry relative="1" as="geometry">
            <mxPoint x="958" y="753" as="sourcePoint" />
            <mxPoint x="958" y="671" as="targetPoint" />
            <Array as="points" />
          </mxGeometry>
        </mxCell>
        <mxCell id="VJbWYuFzF9R8M93_kXKf-45" style="edgeStyle=orthogonalEdgeStyle;rounded=0;orthogonalLoop=1;jettySize=auto;html=1;entryX=0.5;entryY=1;entryDx=0;entryDy=0;entryPerimeter=0;strokeColor=#545B64;fontSize=14;" edge="1" parent="lu0znOIndSDiGiOmnlGc-5">
          <mxGeometry relative="1" as="geometry">
            <mxPoint x="1029" y="751" as="sourcePoint" />
            <mxPoint x="1029" y="672" as="targetPoint" />
            <Array as="points" />
          </mxGeometry>
        </mxCell>
        <mxCell id="VJbWYuFzF9R8M93_kXKf-46" value="Auto Scaling group" style="points=[[0,0],[0.25,0],[0.5,0],[0.75,0],[1,0],[1,0.25],[1,0.5],[1,0.75],[1,1],[0.75,1],[0.5,1],[0.25,1],[0,1],[0,0.75],[0,0.5],[0,0.25]];outlineConnect=0;gradientColor=none;html=1;whiteSpace=wrap;fontSize=14;fontStyle=0;container=1;pointerEvents=0;collapsible=0;recursiveResize=0;shape=mxgraph.aws4.groupCenter;grIcon=mxgraph.aws4.group_auto_scaling_group;grStroke=1;strokeColor=#D86613;fillColor=none;verticalAlign=top;align=center;fontColor=#D86613;dashed=1;spacingTop=25;" vertex="1" parent="lu0znOIndSDiGiOmnlGc-5">
          <mxGeometry x="943" y="133" width="507" height="221" as="geometry" />
        </mxCell>
        <mxCell id="VJbWYuFzF9R8M93_kXKf-47" value="Application&lt;div&gt;Load Balance&lt;/div&gt;" style="text;html=1;align=center;verticalAlign=middle;resizable=0;points=[];autosize=1;strokeColor=none;fillColor=none;fontSize=14;" vertex="1" parent="VJbWYuFzF9R8M93_kXKf-46">
          <mxGeometry x="383" y="83" width="104" height="46" as="geometry" />
        </mxCell>
        <mxCell id="VJbWYuFzF9R8M93_kXKf-48" style="edgeStyle=orthogonalEdgeStyle;rounded=0;orthogonalLoop=1;jettySize=auto;html=1;entryX=0.5;entryY=1;entryDx=0;entryDy=0;entryPerimeter=0;strokeColor=#545B64;fontSize=14;" edge="1" parent="lu0znOIndSDiGiOmnlGc-5">
          <mxGeometry relative="1" as="geometry">
            <mxPoint x="1161" y="752" as="sourcePoint" />
            <mxPoint x="1161" y="673" as="targetPoint" />
            <Array as="points" />
          </mxGeometry>
        </mxCell>
        <mxCell id="lu0znOIndSDiGiOmnlGc-9" value="" style="sketch=0;outlineConnect=0;fontColor=#0E0678;gradientColor=none;fillColor=#0E0678;strokeColor=none;dashed=0;verticalLabelPosition=bottom;verticalAlign=top;align=center;html=1;fontSize=14;fontStyle=0;aspect=fixed;pointerEvents=1;shape=mxgraph.aws4.internet_alt1;labelBackgroundColor=none;labelBorderColor=#0E0678;" parent="1" vertex="1">
          <mxGeometry x="-548" y="503" width="78" height="48" as="geometry" />
        </mxCell>
        <mxCell id="teR93byTSqqBIhb2rqv4-1" value="" style="sketch=0;outlineConnect=0;fontColor=#232F3E;gradientColor=none;fillColor=#0E0678;strokeColor=none;dashed=0;verticalLabelPosition=bottom;verticalAlign=top;align=center;html=1;fontSize=14;fontStyle=0;aspect=fixed;pointerEvents=1;shape=mxgraph.aws4.users;" parent="1" vertex="1">
          <mxGeometry x="-538.5" y="622" width="60" height="60" as="geometry" />
        </mxCell>
        <mxCell id="teR93byTSqqBIhb2rqv4-19" value="" style="endArrow=open;html=1;rounded=0;strokeColor=#545B64;endFill=0;fontSize=14;" parent="1" source="teR93byTSqqBIhb2rqv4-1" target="lu0znOIndSDiGiOmnlGc-9" edge="1">
          <mxGeometry width="50" height="50" relative="1" as="geometry">
            <mxPoint x="-677" y="595.0685483870968" as="sourcePoint" />
            <mxPoint x="-598" y="595" as="targetPoint" />
          </mxGeometry>
        </mxCell>
        <mxCell id="teR93byTSqqBIhb2rqv4-30" value="Internet" style="text;html=1;align=center;verticalAlign=middle;resizable=0;points=[];autosize=1;strokeColor=none;fillColor=none;fontSize=14;" parent="1" vertex="1">
          <mxGeometry x="-541" y="461" width="65" height="29" as="geometry" />
        </mxCell>
        <mxCell id="teR93byTSqqBIhb2rqv4-31" value="Cliente" style="text;html=1;align=center;verticalAlign=middle;resizable=0;points=[];autosize=1;strokeColor=none;fillColor=none;fontSize=14;" parent="1" vertex="1">
          <mxGeometry x="-535" y="694" width="62" height="29" as="geometry" />
        </mxCell>
        <mxCell id="teR93byTSqqBIhb2rqv4-38" value="Auto Scaling group" style="points=[[0,0],[0.25,0],[0.5,0],[0.75,0],[1,0],[1,0.25],[1,0.5],[1,0.75],[1,1],[0.75,1],[0.5,1],[0.25,1],[0,1],[0,0.75],[0,0.5],[0,0.25]];outlineConnect=0;gradientColor=none;html=1;whiteSpace=wrap;fontSize=14;fontStyle=0;container=1;pointerEvents=0;collapsible=0;recursiveResize=0;shape=mxgraph.aws4.groupCenter;grIcon=mxgraph.aws4.group_auto_scaling_group;grStroke=1;strokeColor=#D86613;fillColor=none;verticalAlign=top;align=center;fontColor=#D86613;dashed=1;spacingTop=25;" parent="1" vertex="1">
          <mxGeometry x="54" y="791" width="623" height="159" as="geometry" />
        </mxCell>
        <mxCell id="teR93byTSqqBIhb2rqv4-72" value="" style="aspect=fixed;sketch=0;html=1;dashed=0;whitespace=wrap;verticalLabelPosition=bottom;verticalAlign=top;fillColor=#2875E2;strokeColor=#ffffff;points=[[0.005,0.63,0],[0.1,0.2,0],[0.9,0.2,0],[0.5,0,0],[0.995,0.63,0],[0.72,0.99,0],[0.5,1,0],[0.28,0.99,0]];shape=mxgraph.kubernetes.icon2;kubernetesLabel=1;prIcon=node;fontSize=14;" parent="teR93byTSqqBIhb2rqv4-38" vertex="1">
          <mxGeometry x="265" y="58.5" width="50" height="48" as="geometry" />
        </mxCell>
        <mxCell id="teR93byTSqqBIhb2rqv4-70" value="" style="aspect=fixed;sketch=0;html=1;dashed=0;whitespace=wrap;verticalLabelPosition=bottom;verticalAlign=top;fillColor=#2875E2;strokeColor=#ffffff;points=[[0.005,0.63,0],[0.1,0.2,0],[0.9,0.2,0],[0.5,0,0],[0.995,0.63,0],[0.72,0.99,0],[0.5,1,0],[0.28,0.99,0]];shape=mxgraph.kubernetes.icon2;kubernetesLabel=1;prIcon=node;fontSize=14;" parent="teR93byTSqqBIhb2rqv4-38" vertex="1">
          <mxGeometry x="135" y="60" width="50" height="48" as="geometry" />
        </mxCell>
        <mxCell id="teR93byTSqqBIhb2rqv4-58" style="edgeStyle=orthogonalEdgeStyle;rounded=0;orthogonalLoop=1;jettySize=auto;html=1;strokeColor=#545B64;fontSize=14;" parent="1" edge="1">
          <mxGeometry relative="1" as="geometry">
            <mxPoint x="346" y="984" as="sourcePoint" />
            <mxPoint x="80" y="905" as="targetPoint" />
            <Array as="points" />
          </mxGeometry>
        </mxCell>
        <mxCell id="teR93byTSqqBIhb2rqv4-59" style="edgeStyle=orthogonalEdgeStyle;rounded=0;orthogonalLoop=1;jettySize=auto;html=1;entryX=0.5;entryY=1;entryDx=0;entryDy=0;entryPerimeter=0;strokeColor=#545B64;fontSize=14;" parent="1" edge="1">
          <mxGeometry relative="1" as="geometry">
            <mxPoint x="141" y="985" as="sourcePoint" />
            <mxPoint x="141" y="903" as="targetPoint" />
            <Array as="points" />
          </mxGeometry>
        </mxCell>
        <mxCell id="teR93byTSqqBIhb2rqv4-60" style="edgeStyle=orthogonalEdgeStyle;rounded=0;orthogonalLoop=1;jettySize=auto;html=1;entryX=0.5;entryY=1;entryDx=0;entryDy=0;entryPerimeter=0;strokeColor=#545B64;fontSize=14;" parent="1" edge="1">
          <mxGeometry relative="1" as="geometry">
            <mxPoint x="212" y="983" as="sourcePoint" />
            <mxPoint x="212" y="904" as="targetPoint" />
            <Array as="points" />
          </mxGeometry>
        </mxCell>
        <mxCell id="teR93byTSqqBIhb2rqv4-88" value="" style="endArrow=open;html=1;rounded=0;strokeColor=#545B64;endFill=0;exitX=1;exitY=0.5;exitDx=0;exitDy=0;exitPerimeter=0;fontSize=14;" parent="1" source="teR93byTSqqBIhb2rqv4-21" target="teR93byTSqqBIhb2rqv4-80" edge="1">
          <mxGeometry width="50" height="50" relative="1" as="geometry">
            <mxPoint x="-374.75" y="411.75" as="sourcePoint" />
            <mxPoint x="-304" y="407" as="targetPoint" />
            <Array as="points">
              <mxPoint x="-105" y="400" />
              <mxPoint x="-105" y="275" />
            </Array>
          </mxGeometry>
        </mxCell>
        <mxCell id="teR93byTSqqBIhb2rqv4-101" value="" style="endArrow=open;html=1;rounded=0;strokeColor=#545B64;endFill=0;fontSize=14;" parent="1" source="lu0znOIndSDiGiOmnlGc-9" target="teR93byTSqqBIhb2rqv4-17" edge="1">
          <mxGeometry width="50" height="50" relative="1" as="geometry">
            <mxPoint x="-501" y="470" as="sourcePoint" />
            <mxPoint x="-501" y="309" as="targetPoint" />
          </mxGeometry>
        </mxCell>
        <mxCell id="teR93byTSqqBIhb2rqv4-120" value="Auto Scaling group" style="points=[[0,0],[0.25,0],[0.5,0],[0.75,0],[1,0],[1,0.25],[1,0.5],[1,0.75],[1,1],[0.75,1],[0.5,1],[0.25,1],[0,1],[0,0.75],[0,0.5],[0,0.25]];outlineConnect=0;gradientColor=none;html=1;whiteSpace=wrap;fontSize=14;fontStyle=0;container=1;pointerEvents=0;collapsible=0;recursiveResize=0;shape=mxgraph.aws4.groupCenter;grIcon=mxgraph.aws4.group_auto_scaling_group;grStroke=1;strokeColor=#D86613;fillColor=none;verticalAlign=top;align=center;fontColor=#D86613;dashed=1;spacingTop=25;" parent="1" vertex="1">
          <mxGeometry x="126" y="365" width="507" height="221" as="geometry" />
        </mxCell>
        <mxCell id="teR93byTSqqBIhb2rqv4-111" value="Application&lt;div&gt;Load Balance&lt;/div&gt;" style="text;html=1;align=center;verticalAlign=middle;resizable=0;points=[];autosize=1;strokeColor=none;fillColor=none;fontSize=14;" parent="teR93byTSqqBIhb2rqv4-120" vertex="1">
          <mxGeometry x="383" y="83" width="104" height="46" as="geometry" />
        </mxCell>
        <mxCell id="VJbWYuFzF9R8M93_kXKf-9" style="edgeStyle=orthogonalEdgeStyle;rounded=0;orthogonalLoop=1;jettySize=auto;html=1;entryX=0.5;entryY=1;entryDx=0;entryDy=0;entryPerimeter=0;strokeColor=#545B64;fontSize=14;" edge="1" parent="1">
          <mxGeometry relative="1" as="geometry">
            <mxPoint x="344" y="984" as="sourcePoint" />
            <mxPoint x="344" y="905" as="targetPoint" />
            <Array as="points" />
          </mxGeometry>
        </mxCell>
        <mxCell id="VJbWYuFzF9R8M93_kXKf-16" value="" style="endArrow=open;html=1;rounded=0;strokeColor=#545B64;endFill=0;fontSize=14;" edge="1" parent="1">
          <mxGeometry width="50" height="50" relative="1" as="geometry">
            <mxPoint x="-317" y="395" as="sourcePoint" />
            <mxPoint x="-243" y="395" as="targetPoint" />
          </mxGeometry>
        </mxCell>
      </root>
    </mxGraphModel>
  </diagram>
</mxfile>
